<svg
  xmlns="http://www.w3.org/2000/svg"
  viewBox="0 0 512 512"
  role="img"
  aria-labelledby="favicon-title favicon-desc"
>
  <title id="favicon-title">Quodeq favicon</title>
  <desc id="favicon-desc">Red Q with a compass needle on a white rounded square.</desc>
  <rect x="24" y="24" width="464" height="464" rx="108" fill="#ffffff" />
  <!-- Nested SVG to frame just the Q + needle from the logo -->
  <svg x="76" y="76" width="360" height="360" viewBox="498 232 540 540">
    <path
      id="favicon-q"
      fill="#d80c18"
      stroke="#d80c18"
      stroke-width="100"
      stroke-linejoin="round"
      fill-rule="evenodd"
      d="M7347 7895 c-421 -51 -848 -208 -1192 -437 -514 -342 -923 -889 -1083 -1449 -82 -285 -107 -484 -99 -789 6 -255 21 -365 77 -586 50 -195 94 -313 190 -509 212 -432 526 -792 922 -1055 713 -474 1602 -586 2428 -305 89 30 100 31 149 5 166 -84 533 -188 821 -231 158 -24 466 -31 613 -16 l79 9 -39 26 c-104 69 -293 257 -411 409 -90 116 -252 354 -252 370 0 6 6 13 14 16 22 9 237 254 320 366 221 297 383 652 456 996 36 170 50 293 56 485 23 701 -228 1336 -732 1860 -442 458 -1035 753 -1677 835 -145 18 -487 18 -640 0z m643 -551 c628 -93 1210 -469 1534 -994 143 -230 235 -481 283 -769 24 -146 24 -443 -1 -601 -83 -527 -331 -972 -731 -1310 -230 -194 -532 -349 -830 -426 -180 -46 -294 -63 -475 -70 -360 -15 -699 57 -1025 215 -426 208 -750 530 -966 957 -254 505 -298 1067 -122 1594 44 132 153 357 230 475 294 447 746 764 1278 894 249 61 561 74 825 35z"
      transform="translate(0 1024) scale(0.1 -0.1)"
    />
    <g>
      <path
        fill="#f1171e"
        d="M 640.21436,652.66711 721.35247,466.18696 899.84338,349.64453 c -87.009,100.60868 -173.29796,201.83295 -259.62902,303.02258 z"
      />
      <path
        fill="#aa0000"
        d="M 640.21436,652.66711 810.38705,542.33876 899.84338,349.64453 c -87.009,100.60868 -173.29796,201.83295 -259.62902,303.02258 z"
      />
    </g>
  </svg>
</svg>
